<svg xmlns="http://www.w3.org/2000/svg" width="1600" height="900" viewBox="0 0 1600 900" fill="none">
  <defs>
    <linearGradient id="bg4" x1="0" y1="0" x2="1" y2="1">
      <stop offset="0%" stop-color="#09130F"/>
      <stop offset="100%" stop-color="#0E241C"/>
    </linearGradient>
    <linearGradient id="plate4" x1="0" y1="0" x2="1" y2="1">
      <stop offset="0%" stop-color="#153328"/>
      <stop offset="100%" stop-color="#0F241C"/>
    </linearGradient>
  </defs>
  <rect width="1600" height="900" rx="28" fill="url(#bg4)"/>
  <g opacity="0.14" stroke="#7AB99D">
    <path d="M0 170H1600M0 250H1600M0 330H1600M0 410H1600M0 490H1600M0 570H1600M0 650H1600M0 730H1600"/>
    <path d="M140 0V900M300 0V900M460 0V900M620 0V900M780 0V900M940 0V900M1100 0V900M1260 0V900M1420 0V900"/>
  </g>
  <rect x="96" y="96" width="1408" height="150" rx="20" fill="#123126" stroke="#2CB978" stroke-opacity="0.34"/>
  <text x="140" y="166" fill="#EEFFF7" font-family="Poppins, Arial, sans-serif" font-size="50" font-weight="700">Comunicados ORQO | Campanas 2026</text>
  <text x="140" y="214" fill="#B7DECC" font-family="Poppins, Arial, sans-serif" font-size="28">Plantilla visual para anuncios comerciales y operativos del ecosistema ORQO</text>
  <rect x="118" y="308" width="1364" height="486" rx="24" fill="url(#plate4)" stroke="#2CB978" stroke-opacity="0.30"/>
  <rect x="170" y="362" width="1240" height="86" rx="14" fill="#1A3A2F"/>
  <rect x="170" y="470" width="1240" height="86" rx="14" fill="#16342A"/>
  <rect x="170" y="578" width="1240" height="86" rx="14" fill="#133027"/>
  <text x="214" y="416" fill="#E8FFF4" font-family="Poppins, Arial, sans-serif" font-size="30" font-weight="700">Lanzamiento de automatizaciones para temporada Mundial 2026</text>
  <text x="214" y="524" fill="#D6F5E8" font-family="Poppins, Arial, sans-serif" font-size="28">Activaciones por canal: web, WhatsApp y comercio electronico</text>
  <text x="214" y="632" fill="#C1E8D7" font-family="Poppins, Arial, sans-serif" font-size="27">Metrica sugerida: conversion, tiempo de respuesta y tasa de resolucion</text>
  <rect x="170" y="698" width="620" height="62" rx="12" fill="#1D4134" stroke="#2CB978" stroke-opacity="0.38"/>
  <text x="206" y="738" fill="#E8FFF4" font-family="Poppins, Arial, sans-serif" font-size="24">Comunicado listo para exportar a redes y email.</text>
  <rect x="838" y="698" width="572" height="62" rx="12" fill="#17382D" stroke="#2CB978" stroke-opacity="0.38"/>
  <text x="874" y="738" fill="#D9F9EB" font-family="Poppins, Arial, sans-serif" font-size="24">Version minimalista y corporativa ORQO.</text>
</svg>
