<svg width="1200" height="720" viewBox="0 0 1200 720" fill="none" xmlns="http://www.w3.org/2000/svg">
  <rect width="1200" height="720" fill="#111014"/>
  <rect x="24" y="24" width="1152" height="672" rx="28" fill="url(#bg3)" stroke="#2CB978" stroke-opacity="0.3"/>
  <rect x="72" y="82" width="344" height="530" rx="22" fill="#0D1612" stroke="#2CB978" stroke-opacity="0.35"/>
  <text x="98" y="140" fill="#EAF8F0" font-size="44" font-family="Arial" font-weight="700">ORQO</text>
  <text x="98" y="184" fill="#82C7A0" font-size="26" font-family="Arial">Flyer Pack</text>
  <rect x="98" y="230" width="292" height="54" rx="10" fill="#2CB978" fill-opacity="0.22"/>
  <rect x="98" y="300" width="292" height="54" rx="10" fill="#2CB978" fill-opacity="0.14"/>
  <rect x="98" y="370" width="292" height="54" rx="10" fill="#2CB978" fill-opacity="0.1"/>
  <rect x="98" y="440" width="218" height="54" rx="10" fill="#2CB978" fill-opacity="0.1"/>
  <rect x="452" y="82" width="676" height="258" rx="24" fill="#0B1210" stroke="#2CB978" stroke-opacity="0.4"/>
  <text x="492" y="158" fill="#EAF8F0" font-size="54" font-family="Arial" font-weight="700">Lleva tu marca a otro nivel</text>
  <text x="492" y="214" fill="#8BC8A8" font-size="30" font-family="Arial">Atiende clientes con IA en todos los canales.</text>
  <rect x="492" y="248" width="252" height="56" rx="12" fill="#2CB978"/>
  <text x="532" y="285" fill="#FFFFFF" font-size="30" font-family="Arial" font-weight="700">Solicita demo</text>
  <rect x="452" y="364" width="322" height="248" rx="22" fill="#0D1C16" stroke="#2CB978" stroke-opacity="0.3"/>
  <rect x="806" y="364" width="322" height="248" rx="22" fill="#0D1C16" stroke="#2CB978" stroke-opacity="0.3"/>
  <circle cx="612" cy="486" r="72" fill="#2CB978" fill-opacity="0.2"/>
  <circle cx="966" cy="486" r="72" fill="#2CB978" fill-opacity="0.2"/>
  <defs>
    <linearGradient id="bg3" x1="100" y1="50" x2="1080" y2="668" gradientUnits="userSpaceOnUse">
      <stop stop-color="#1A131F"/>
      <stop offset="1" stop-color="#0F1412"/>
    </linearGradient>
  </defs>
</svg>
