<svg xmlns="http://www.w3.org/2000/svg" width="1600" height="900" viewBox="0 0 1600 900" fill="none">
  <defs>
    <linearGradient id="bg3" x1="0" y1="0" x2="1" y2="1">
      <stop offset="0%" stop-color="#0A1311"/>
      <stop offset="100%" stop-color="#10271E"/>
    </linearGradient>
    <linearGradient id="card3" x1="0" y1="0" x2="1" y2="1">
      <stop offset="0%" stop-color="#143228"/>
      <stop offset="100%" stop-color="#10241D"/>
    </linearGradient>
  </defs>
  <rect width="1600" height="900" rx="28" fill="url(#bg3)"/>
  <g opacity="0.15" stroke="#7BB99D">
    <path d="M0 180H1600M0 270H1600M0 360H1600M0 450H1600M0 540H1600M0 630H1600M0 720H1600"/>
    <path d="M120 0V900M280 0V900M440 0V900M600 0V900M760 0V900M920 0V900M1080 0V900M1240 0V900M1400 0V900"/>
  </g>
  <rect x="96" y="98" width="1408" height="142" rx="20" fill="#123027" stroke="#2CB978" stroke-opacity="0.36"/>
  <text x="138" y="164" fill="#F0FFF8" font-family="Poppins, Arial, sans-serif" font-size="49" font-weight="700">ORQO comunicado operativo</text>
  <text x="138" y="212" fill="#B6DECC" font-family="Poppins, Arial, sans-serif" font-size="28">Cobertura recomendada para ventanas de alta concurrencia en 2026</text>
  <rect x="118" y="304" width="1364" height="496" rx="24" fill="url(#card3)" stroke="#2CB978" stroke-opacity="0.32"/>
  <g>
    <rect x="170" y="358" width="300" height="98" rx="16" fill="#19392E"/>
    <rect x="170" y="474" width="300" height="98" rx="16" fill="#19392E"/>
    <rect x="170" y="590" width="300" height="98" rx="16" fill="#19392E"/>
    <text x="204" y="416" fill="#E8FFF3" font-family="Poppins, Arial, sans-serif" font-size="28" font-weight="700">Web Widget</text>
    <text x="204" y="532" fill="#E8FFF3" font-family="Poppins, Arial, sans-serif" font-size="28" font-weight="700">WhatsApp</text>
    <text x="204" y="648" fill="#E8FFF3" font-family="Poppins, Arial, sans-serif" font-size="28" font-weight="700">Instagram</text>
  </g>
  <g>
    <path d="M544 642C668 560 762 612 862 522C956 438 1062 498 1168 430C1268 366 1366 424 1434 388" stroke="#2CB978" stroke-width="8" stroke-linecap="round"/>
    <path d="M544 574C662 504 748 548 854 486C938 436 1048 462 1146 418C1240 376 1328 412 1430 372" stroke="#4FCF95" stroke-opacity="0.6" stroke-width="5" stroke-linecap="round"/>
    <circle cx="862" cy="522" r="11" fill="#2CB978"/>
    <circle cx="1168" cy="430" r="11" fill="#2CB978"/>
    <circle cx="1434" cy="388" r="11" fill="#2CB978"/>
  </g>
  <text x="544" y="420" fill="#E8FFF3" font-family="Poppins, Arial, sans-serif" font-size="34" font-weight="700">Mundial 2026 - plan de comunicados</text>
  <text x="544" y="468" fill="#B8DECD" font-family="Poppins, Arial, sans-serif" font-size="24">Mensajeria preparada por canal para escalar trafico sin perder consistencia.</text>
  <text x="544" y="510" fill="#B8DECD" font-family="Poppins, Arial, sans-serif" font-size="24">Visual sobrio para anuncios ejecutivos, pauta y presentaciones comerciales.</text>
</svg>
