<svg width="1200" height="720" viewBox="0 0 1200 720" fill="none" xmlns="http://www.w3.org/2000/svg">
  <rect width="1200" height="720" fill="#08110D"/>
  <rect x="28" y="28" width="1144" height="664" rx="28" fill="url(#bg1)" stroke="#2CB978" stroke-opacity="0.35"/>
  <circle cx="1028" cy="142" r="140" fill="#2CB978" fill-opacity="0.22"/>
  <circle cx="194" cy="596" r="168" fill="#2CB978" fill-opacity="0.18"/>
  <text x="84" y="124" fill="#E8F4EE" font-size="62" font-family="Arial" font-weight="700">ORQO Marketing</text>
  <text x="84" y="188" fill="#8AC8A7" font-size="32" font-family="Arial">Automatiza conversaciones y convierte en ventas</text>
  <rect x="84" y="252" width="480" height="86" rx="14" fill="#2CB978"/>
  <text x="124" y="307" fill="#FFFFFF" font-size="34" font-family="Arial" font-weight="700">Lanza tu campana hoy</text>
  <text x="84" y="396" fill="#C6E7D5" font-size="28" font-family="Arial">WhatsApp · Web Widget · Instagram · Shopify</text>
  <text x="84" y="448" fill="#B1DCC6" font-size="24" font-family="Arial">Unifica canales, reduce tiempos de respuesta</text>
  <text x="84" y="490" fill="#B1DCC6" font-size="24" font-family="Arial">y mide resultados con IA.</text>
  <rect x="762" y="266" width="320" height="340" rx="22" fill="#0D1A14" stroke="#2CB978" stroke-opacity="0.5"/>
  <rect x="792" y="300" width="260" height="48" rx="10" fill="#2CB978" fill-opacity="0.18"/>
  <rect x="792" y="364" width="260" height="48" rx="10" fill="#2CB978" fill-opacity="0.12"/>
  <rect x="792" y="428" width="260" height="48" rx="10" fill="#2CB978" fill-opacity="0.1"/>
  <rect x="792" y="492" width="198" height="48" rx="10" fill="#2CB978" fill-opacity="0.1"/>
  <defs>
    <linearGradient id="bg1" x1="75" y1="52" x2="1080" y2="666" gradientUnits="userSpaceOnUse">
      <stop stop-color="#0D1D16"/>
      <stop offset="1" stop-color="#07120E"/>
    </linearGradient>
  </defs>
</svg>
